<svg width="133" height="29" viewBox="0 0 133 29" fill="none" xmlns="http://www.w3.org/2000/svg">
<path d="M5.31445 12.3848C5.57877 12.3848 5.77018 12.4941 5.88867 12.7129C6.01627 12.9225 6.08007 13.1641 6.08007 13.4375C6.08007 13.5742 6.0664 13.6927 6.03906 13.793C6.01171 13.8932 5.95703 13.9889 5.875 14.0801C5.79296 14.1621 5.68359 14.2441 5.54687 14.3262C5.41015 14.3991 5.23242 14.4811 5.01367 14.5723C4.50325 14.791 4.10221 15.0553 3.81054 15.3652C3.51888 15.666 3.37304 15.9668 3.37304 16.2676C3.37304 16.459 3.43684 16.6413 3.56445 16.8145C3.69205 16.9876 3.89257 17.1426 4.16601 17.2793C4.43945 17.4069 4.79036 17.5117 5.21875 17.5938C5.65625 17.6667 6.18033 17.7031 6.79101 17.7031C7.41992 17.7031 8.01692 17.6302 8.58203 17.4844C9.14713 17.3294 9.63932 17.1152 10.0586 16.8418C10.487 16.5684 10.8242 16.2448 11.0703 15.8711C11.3255 15.4974 11.4531 15.0918 11.4531 14.6543C11.4531 14.3262 11.3164 13.9844 11.043 13.6289C10.7695 13.2734 10.3366 12.9043 9.74414 12.5215C8.69596 11.8379 7.89843 11.2865 7.35156 10.8672C6.8138 10.4479 6.48112 10.1836 6.35351 10.0742C5.66992 9.47266 5.1595 8.89388 4.82226 8.33789C4.48502 7.7819 4.3164 7.20313 4.3164 6.60156C4.3164 6.04557 4.44857 5.50326 4.71289 4.97461C4.98633 4.44596 5.35091 3.94922 5.80664 3.48438C6.26237 3.01953 6.78646 2.59115 7.3789 2.19922C7.98047 1.79818 8.60482 1.45638 9.25195 1.17383C9.9082 0.891278 10.5645 0.672528 11.2207 0.51758C11.8861 0.353518 12.515 0.271487 13.1074 0.271487C13.554 0.271487 13.9642 0.321617 14.3379 0.421878C14.7207 0.522138 15.0534 0.681644 15.3359 0.900394C15.6185 1.11003 15.8372 1.38347 15.9922 1.72071C16.1562 2.05795 16.2383 2.46354 16.2383 2.9375C16.2383 3.6211 16.0423 4.27279 15.6504 4.89258C15.2585 5.51237 14.6615 6.09115 13.8594 6.62891C13.5039 6.875 13.1758 6.99805 12.875 6.99805C12.5651 6.99805 12.319 6.88867 12.1367 6.66992C11.9544 6.44206 11.8633 6.17774 11.8633 5.87696C11.8633 5.62175 11.9362 5.36654 12.082 5.11133C12.237 4.85612 12.4831 4.63737 12.8203 4.45508C13.0846 4.31836 13.3171 4.13607 13.5176 3.90821C13.7272 3.67123 13.832 3.44336 13.832 3.22461C13.832 3.01498 13.7591 2.87826 13.6133 2.81446C13.4766 2.75065 13.3079 2.71875 13.1074 2.71875C12.7246 2.71875 12.3053 2.76888 11.8496 2.86914C11.403 2.96029 10.9518 3.08789 10.4961 3.25196C10.0495 3.41602 9.61198 3.61198 9.18359 3.83985C8.76432 4.06771 8.39062 4.3138 8.0625 4.57813C7.74349 4.84245 7.48372 5.125 7.2832 5.42578C7.09179 5.71745 6.99609 6.00912 6.99609 6.30078C6.99609 6.5013 7.03711 6.68815 7.11914 6.86133C7.20117 7.03451 7.31966 7.20768 7.47461 7.38086C7.63867 7.55404 7.83463 7.73633 8.0625 7.92774C8.29036 8.11003 8.55468 8.31055 8.85547 8.5293L12.0547 10.8945C12.4648 11.1953 12.8294 11.4915 13.1484 11.7832C13.4766 12.0658 13.75 12.3529 13.9687 12.6445C14.1875 12.9271 14.3561 13.2142 14.4746 13.5059C14.5931 13.7975 14.6523 14.1074 14.6523 14.4355C14.6523 15.1647 14.4609 15.8802 14.0781 16.582C13.7044 17.2747 13.1667 17.8945 12.4648 18.4414C11.7721 18.9883 10.9336 19.4303 9.94921 19.7676C8.97395 20.1048 7.88932 20.2734 6.69531 20.2734C5.58333 20.2734 4.63541 20.1823 3.85156 20C3.07682 19.8268 2.4388 19.5898 1.9375 19.2891C1.43619 18.9792 1.07161 18.6283 0.843745 18.2363C0.615881 17.8353 0.501949 17.416 0.501949 16.9785C0.501949 16.5228 0.615881 16.0625 0.843746 15.5977C1.08073 15.1237 1.40885 14.6771 1.82812 14.2578C2.25651 13.8385 2.76692 13.4648 3.35937 13.1367C3.95182 12.8086 4.60351 12.5579 5.31445 12.3848ZM19.082 8.17383C19.082 7.9642 19.1185 7.75 19.1914 7.53125C19.2734 7.30339 19.3919 7.09831 19.5469 6.91602C19.7018 6.73373 19.8932 6.58334 20.1211 6.46485C20.3581 6.34636 20.6361 6.28711 20.9551 6.28711C21.4837 6.28711 21.8529 6.39193 22.0625 6.60157C22.2721 6.80209 22.377 7.0573 22.377 7.36719C22.377 7.54037 22.3405 7.73178 22.2676 7.94141C22.2038 8.15105 22.1035 8.34701 21.9668 8.5293C21.8301 8.70248 21.6523 8.84831 21.4336 8.9668C21.2148 9.08529 20.9551 9.14454 20.6543 9.14454C20.0892 9.14454 19.6927 9.05795 19.4648 8.88477C19.237 8.70248 19.1094 8.4655 19.082 8.17383ZM17.5781 11.25C17.7331 10.9948 17.9108 10.8125 18.1113 10.7031C18.3118 10.5938 18.5169 10.5391 18.7266 10.5391C19.0729 10.5391 19.3691 10.653 19.6152 10.8809C19.8704 11.0996 19.998 11.3822 19.998 11.7285C19.9889 11.8106 19.9753 11.8926 19.957 11.9746C19.9479 12.0566 19.9206 12.1387 19.875 12.2207C19.7474 12.4577 19.6426 12.6582 19.5605 12.8223C19.4785 12.9863 19.401 13.1413 19.3281 13.2871C19.2643 13.4238 19.2005 13.5606 19.1367 13.6973C19.0729 13.834 18.9954 13.9981 18.9043 14.1895C18.7949 14.4173 18.6719 14.668 18.5352 14.9414C18.3984 15.2057 18.2663 15.4792 18.1387 15.7617C18.0202 16.0443 17.9154 16.3223 17.8242 16.5957C17.7422 16.8691 17.7012 17.1198 17.7012 17.3477C17.7012 17.5938 17.7604 17.7578 17.8789 17.8398C18.0065 17.9128 18.1842 17.9492 18.4121 17.9492C18.6673 17.9492 18.9316 17.8945 19.2051 17.7852C19.4876 17.6758 19.7702 17.5345 20.0527 17.3613C20.3353 17.1882 20.6133 16.9922 20.8867 16.7734C21.1602 16.5456 21.4154 16.3177 21.6523 16.0898C21.8984 15.862 22.1217 15.6432 22.3223 15.4336C22.5319 15.224 22.7051 15.0371 22.8418 14.8731C23.0241 14.6999 23.2064 14.6133 23.3887 14.6133C23.5527 14.6133 23.6849 14.6862 23.7852 14.832C23.8945 14.9779 23.9492 15.1647 23.9492 15.3926C23.9492 15.6022 23.8945 15.8255 23.7852 16.0625C23.6849 16.2995 23.5163 16.5228 23.2793 16.7324C22.8144 17.2064 22.3405 17.6621 21.8574 18.0996C21.3743 18.528 20.8776 18.9108 20.3672 19.2481C19.8659 19.5762 19.36 19.8405 18.8496 20.041C18.3392 20.2415 17.8242 20.3418 17.3047 20.3418C16.5664 20.3418 15.9831 20.155 15.5547 19.7813C15.1354 19.3984 14.9258 18.806 14.9258 18.0039C14.9258 17.5846 14.985 17.1745 15.1035 16.7734C15.222 16.3724 15.3633 15.985 15.5273 15.6113C15.6914 15.2285 15.8646 14.8639 16.0469 14.5176C16.2292 14.1621 16.3841 13.8249 16.5117 13.5059C16.5573 13.3874 16.6348 13.2051 16.7441 12.959C16.8626 12.7129 16.9857 12.4622 17.1133 12.207C17.2591 11.9063 17.4141 11.5872 17.5781 11.25ZM24.5371 11.7012C24.7194 11.3092 24.9473 11.0176 25.2207 10.8262C25.4941 10.6348 25.763 10.5391 26.0273 10.5391C26.2461 10.5391 26.4421 10.6211 26.6152 10.7852C26.7884 10.9401 26.875 11.1725 26.875 11.4824C26.875 11.6009 26.8613 11.7285 26.834 11.8652C26.8066 12.002 26.7565 12.1478 26.6836 12.3027C26.8841 12.0475 27.1712 11.7878 27.5449 11.5234C27.9186 11.25 28.3288 11.0085 28.7754 10.7988C29.2311 10.5801 29.696 10.4023 30.1699 10.2656C30.653 10.1289 31.1087 10.0606 31.5371 10.0606C32.0202 10.0606 32.4212 10.179 32.7402 10.416C33.0684 10.6439 33.2324 11.0358 33.2324 11.5918C33.2324 11.9199 33.1823 12.2617 33.082 12.6172C32.9818 12.9727 32.8496 13.3281 32.6855 13.6836C32.5306 14.0391 32.3529 14.39 32.1523 14.7363C31.9609 15.0736 31.7695 15.3926 31.5781 15.6934C31.3867 15.9941 31.209 16.2721 31.0449 16.5273C30.89 16.7734 30.7669 16.9785 30.6758 17.1426C30.5573 17.2884 30.498 17.457 30.498 17.6484C30.498 17.7214 30.5208 17.7852 30.5664 17.8398C30.612 17.8945 30.6849 17.9219 30.7852 17.9219C30.849 17.9219 30.9219 17.9173 31.0039 17.9082C31.0859 17.89 31.1862 17.8398 31.3047 17.7578C31.7969 17.5755 32.2982 17.3477 32.8086 17.0742C33.3281 16.8008 33.8249 16.5137 34.2988 16.2129C34.7728 15.903 35.2057 15.5977 35.5977 15.2969C35.9987 14.987 36.3314 14.709 36.5957 14.4629C36.6686 14.3991 36.7415 14.3535 36.8144 14.3262C36.8874 14.2988 36.9557 14.2852 37.0195 14.2852C37.1745 14.2852 37.293 14.3444 37.375 14.4629C37.4661 14.5814 37.5117 14.7318 37.5117 14.9141C37.5117 15.1966 37.4206 15.5111 37.2383 15.8574C37.0651 16.2038 36.7871 16.5274 36.4043 16.8281C35.8848 17.2018 35.4062 17.5436 34.9687 17.8535C34.5404 18.1634 34.0983 18.4551 33.6426 18.7285C33.196 18.9928 32.7129 19.2435 32.1934 19.4805C31.6829 19.7083 31.0814 19.9225 30.3887 20.1231C30.1517 20.196 29.9329 20.2507 29.7324 20.2871C29.541 20.3236 29.3633 20.3418 29.1992 20.3418C28.7161 20.3418 28.3607 20.2096 28.1328 19.9453C27.9141 19.6719 27.8047 19.2936 27.8047 18.8106C27.8047 18.7468 27.8047 18.6875 27.8047 18.6328C27.8138 18.569 27.8229 18.5007 27.832 18.4277C27.8503 18.1452 27.9232 17.8353 28.0508 17.4981C28.1875 17.1608 28.347 16.8145 28.5293 16.459C28.7207 16.1035 28.9212 15.7526 29.1309 15.4063C29.3405 15.0508 29.5319 14.7181 29.7051 14.4082C29.8874 14.0892 30.0378 13.8066 30.1562 13.5606C30.2747 13.3145 30.334 13.1139 30.334 12.959C30.334 12.8223 30.293 12.7083 30.2109 12.6172C30.138 12.5169 30.0241 12.4668 29.8691 12.4668C29.2858 12.4668 28.7298 12.64 28.2012 12.9863C27.6816 13.3327 27.194 13.7611 26.7383 14.2715C26.2825 14.7728 25.8633 15.306 25.4805 15.8711C25.0977 16.4362 24.7604 16.9421 24.4687 17.3887C24.2865 17.6895 24.1178 18.013 23.9629 18.3594C23.8171 18.6966 23.6621 19.0156 23.498 19.3164C23.334 19.6081 23.1471 19.8496 22.9375 20.041C22.737 20.2415 22.4818 20.3418 22.1719 20.3418C21.8529 20.3418 21.6022 20.2415 21.4199 20.041C21.2376 19.8405 21.1465 19.5944 21.1465 19.3027C21.1465 19.1478 21.2103 18.8971 21.3379 18.5508C21.4655 18.2044 21.6296 17.8034 21.8301 17.3477C22.0306 16.8919 22.2539 16.4043 22.5 15.8848C22.7552 15.3561 23.0059 14.8366 23.2519 14.3262C23.5072 13.8066 23.7487 13.319 23.9766 12.8633C24.2044 12.4076 24.3913 12.0202 24.5371 11.7012ZM53.084 14.4629C53.0384 14.4629 52.9974 14.4675 52.9609 14.4766C52.9336 14.4766 52.9017 14.4766 52.8652 14.4766C52.4186 15.4792 52.0221 16.3587 51.6758 17.1152C51.3385 17.8718 51.0788 18.4186 50.8965 18.7559C50.7415 19.0384 50.5638 19.2845 50.3633 19.4941C50.1719 19.7038 49.9668 19.877 49.748 20.0137C49.5293 20.1595 49.306 20.2643 49.0781 20.3281C48.8594 20.4011 48.6543 20.4375 48.4629 20.4375C48.1803 20.4375 47.9434 20.3691 47.7519 20.2324C47.5605 20.0957 47.4648 19.8906 47.4648 19.6172C47.4648 19.3802 47.5378 19.1022 47.6836 18.7832L49.6523 14.6133C48.6589 14.6497 47.7018 14.6816 46.7812 14.709C45.8698 14.7363 44.9902 14.7591 44.1426 14.7774C43.7142 15.6524 43.2539 16.4772 42.7617 17.252C42.2695 18.0176 41.75 18.6875 41.2031 19.2617C40.6562 19.8359 40.0866 20.2871 39.4941 20.6152C38.9017 20.9525 38.2865 21.1211 37.6484 21.1211C37.1562 21.1211 36.7005 20.9935 36.2812 20.7383C36.1536 20.6836 36.0124 20.5788 35.8574 20.4238C35.7116 20.278 35.5749 20.1003 35.4473 19.8906C35.3197 19.681 35.2103 19.4531 35.1191 19.207C35.0371 18.9609 34.9961 18.7103 34.9961 18.4551C34.9961 18.2728 35.028 18.0996 35.0918 17.9356C35.1556 17.7624 35.2467 17.5983 35.3652 17.4434C35.4199 17.3796 35.4837 17.2975 35.5566 17.1973C35.6296 17.097 35.7161 17.0013 35.8164 16.9102C35.9167 16.8099 36.0215 16.7279 36.1309 16.6641C36.2493 16.6003 36.3769 16.5684 36.5137 16.5684C36.5684 16.5684 36.623 16.5775 36.6777 16.5957C36.7324 16.6048 36.7825 16.6276 36.8281 16.6641C36.9193 16.7188 37.0059 16.8418 37.0879 17.0332C37.179 17.2246 37.2747 17.4251 37.375 17.6348C37.4844 17.8353 37.6029 18.0176 37.7305 18.1816C37.8581 18.3457 38.0085 18.4277 38.1816 18.4277C38.4277 18.4277 38.6738 18.3366 38.9199 18.1543C39.1751 17.9629 39.4303 17.7031 39.6855 17.375C39.9499 17.0378 40.2142 16.6367 40.4785 16.1719C40.7428 15.707 41.0072 15.2012 41.2715 14.6543C40.9798 14.5632 40.7747 14.4356 40.6562 14.2715C40.5378 14.0983 40.4785 13.9206 40.4785 13.7383C40.4785 13.6289 40.5195 13.5195 40.6016 13.4102C40.6836 13.3008 40.7975 13.2051 40.9434 13.1231C41.0892 13.0319 41.2578 12.9544 41.4492 12.8906C41.6497 12.8268 41.8685 12.7904 42.1055 12.7813C42.4336 11.9792 42.748 11.1452 43.0488 10.2793C43.3496 9.41342 43.6367 8.56576 43.9102 7.73634C44.1836 6.90691 44.4342 6.11394 44.6621 5.35743C44.89 4.59181 45.0905 3.90821 45.2637 3.30665C45.4368 2.70509 45.5781 2.20834 45.6875 1.81641C45.7969 1.42449 45.8652 1.17839 45.8926 1.07813C45.9655 0.795581 46.1022 0.590503 46.3027 0.462899C46.5124 0.335295 46.7357 0.271493 46.9727 0.271493C47.3281 0.271493 47.597 0.389983 47.7793 0.626962C47.9707 0.854826 48.0664 1.2741 48.0664 1.88477C48.0664 1.95769 48.0664 2.03517 48.0664 2.1172C48.0664 2.19011 48.0618 2.27214 48.0527 2.36329C48.0345 2.60027 47.9889 2.92384 47.916 3.33399C47.8431 3.73503 47.7474 4.19988 47.6289 4.72852C47.5104 5.25717 47.3646 5.8405 47.1914 6.47852C47.0182 7.10743 46.8223 7.76824 46.6035 8.46095C46.3939 9.14454 46.1569 9.85092 45.8926 10.5801C45.6374 11.3093 45.3594 12.0339 45.0586 12.7539C45.3411 12.7539 45.651 12.7539 45.9883 12.7539C46.3255 12.7539 46.7038 12.7585 47.123 12.7676C47.5514 12.7676 48.0345 12.7767 48.5723 12.7949C49.11 12.804 49.7253 12.8177 50.418 12.8359C50.4271 12.8359 50.4362 12.8405 50.4453 12.8496C50.4544 12.8496 50.4635 12.8496 50.4727 12.8496C51.2747 11.1634 52.0358 9.57748 52.7559 8.09181C53.4759 6.59701 54.1367 5.29363 54.7383 4.18165C55.3398 3.06056 55.873 2.17644 56.3379 1.52931C56.8027 0.882172 57.1855 0.558604 57.4863 0.558604C57.8053 0.558604 58.0423 0.636078 58.1973 0.791026C58.3613 0.93686 58.4434 1.13738 58.4434 1.39259C58.4434 1.52931 58.4251 1.65235 58.3887 1.76173C58.3613 1.86199 58.3203 1.97592 58.2656 2.10353C58.0286 2.67774 57.7279 3.38413 57.3633 4.22267C56.9987 5.06121 56.6022 5.96811 56.1738 6.94337C55.7454 7.90952 55.2988 8.91668 54.834 9.96485C54.3783 11.0039 53.9362 12.0111 53.5078 12.9863C53.7812 13.041 54.0046 13.1185 54.1777 13.2188C54.36 13.3099 54.4512 13.433 54.4512 13.5879C54.4512 13.7884 54.3464 13.9798 54.1367 14.1621C53.9271 14.3353 53.5762 14.4356 53.084 14.4629ZM61.082 11.9336C61.0365 11.9245 60.9954 11.9199 60.959 11.9199C60.9225 11.9199 60.8815 11.9199 60.8359 11.9199C60.4896 11.9199 60.166 11.9883 59.8652 12.125C59.5644 12.2617 59.2865 12.444 59.0312 12.6719C58.7852 12.8906 58.5618 13.1413 58.3613 13.4238C58.1699 13.7064 57.9967 13.9889 57.8418 14.2715C57.6868 14.5449 57.5547 14.8093 57.4453 15.0645C57.345 15.3197 57.2676 15.5339 57.2129 15.707C57.5319 15.543 57.86 15.3561 58.1973 15.1465C58.5436 14.9369 58.8672 14.7363 59.168 14.5449C59.4687 14.3535 59.7285 14.1803 59.9473 14.0254C60.1751 13.8705 60.3346 13.7656 60.4258 13.7109C60.8359 13.4557 61.1185 13.2188 61.2734 13C61.4284 12.7721 61.5059 12.5762 61.5059 12.4121C61.5059 12.2754 61.4603 12.166 61.3691 12.084C61.2871 12.002 61.1914 11.9518 61.082 11.9336ZM61.5742 10.0469C62.3307 10.0469 62.8958 10.2292 63.2695 10.5938C63.6432 10.9583 63.8301 11.4642 63.8301 12.1113C63.8301 12.4942 63.7298 12.8952 63.5293 13.3145C63.3288 13.7337 62.9824 14.1621 62.4902 14.5996C61.998 15.028 61.3372 15.4701 60.5078 15.9258C59.6875 16.3724 58.6575 16.8236 57.418 17.2793C57.4635 17.5436 57.6048 17.7533 57.8418 17.9082C58.0788 18.054 58.3932 18.127 58.7852 18.127C59.2044 18.127 59.651 18.0677 60.125 17.9492C60.6081 17.8216 61.082 17.6621 61.5469 17.4707C62.0208 17.2793 62.4811 17.0742 62.9277 16.8555C63.3743 16.6276 63.7754 16.4134 64.1309 16.2129C64.4954 16.0124 64.7962 15.8392 65.0332 15.6934C65.2793 15.5475 65.4434 15.4564 65.5254 15.4199C65.6074 15.3652 65.6803 15.3333 65.7441 15.3242C65.8171 15.3151 65.8809 15.3106 65.9355 15.3106C66.0449 15.3106 66.1361 15.3379 66.209 15.3926C66.2819 15.4382 66.3411 15.4974 66.3867 15.5703C66.4414 15.6341 66.4779 15.707 66.4961 15.7891C66.5143 15.862 66.5234 15.9258 66.5234 15.9805C66.5234 16.0625 66.5143 16.1628 66.4961 16.2813C66.4779 16.3906 66.4095 16.5182 66.291 16.6641C66.2454 16.7096 66.0905 16.8327 65.8262 17.0332C65.571 17.2337 65.2383 17.4707 64.8281 17.7442C64.418 18.0176 63.9394 18.3093 63.3926 18.6192C62.8548 18.9199 62.2806 19.1979 61.6699 19.4531C61.0684 19.7083 60.4394 19.918 59.7832 20.082C59.1269 20.2552 58.4798 20.3418 57.8418 20.3418C57.2949 20.3418 56.8073 20.237 56.3789 20.0274C55.9596 19.8177 55.5996 19.5352 55.2988 19.1797C55.0072 18.8242 54.7838 18.4141 54.6289 17.9492C54.474 17.4844 54.3965 16.9968 54.3965 16.4863C54.3965 16.0944 54.474 15.666 54.6289 15.2012C54.7839 14.7272 55.0072 14.2533 55.2988 13.7793C55.5905 13.3053 55.946 12.8451 56.3652 12.3984C56.7936 11.9427 57.2721 11.5417 57.8008 11.1953C58.3294 10.849 58.9082 10.571 59.5371 10.3613C60.1751 10.1517 60.8542 10.0469 61.5742 10.0469ZM70.707 11.9336C70.6615 11.9245 70.6204 11.9199 70.584 11.9199C70.5475 11.9199 70.5065 11.9199 70.4609 11.9199C70.1146 11.9199 69.791 11.9883 69.4902 12.125C69.1894 12.2617 68.9115 12.444 68.6562 12.6719C68.4102 12.8906 68.1868 13.1413 67.9863 13.4238C67.7949 13.7064 67.6217 13.9889 67.4668 14.2715C67.3118 14.5449 67.1797 14.8093 67.0703 15.0645C66.97 15.3197 66.8926 15.5339 66.8379 15.707C67.1569 15.543 67.485 15.3561 67.8223 15.1465C68.1686 14.9369 68.4922 14.7363 68.793 14.5449C69.0937 14.3535 69.3535 14.1804 69.5723 14.0254C69.8001 13.8705 69.9596 13.7656 70.0508 13.711C70.4609 13.4557 70.7435 13.2188 70.8984 13C71.0534 12.7721 71.1309 12.5762 71.1309 12.4121C71.1309 12.2754 71.0853 12.166 70.9941 12.084C70.9121 12.002 70.8164 11.9518 70.707 11.9336ZM71.1992 10.0469C71.9557 10.0469 72.5208 10.2292 72.8945 10.5938C73.2682 10.9583 73.4551 11.4642 73.4551 12.1113C73.4551 12.4942 73.3548 12.8952 73.1543 13.3145C72.9538 13.7337 72.6074 14.1621 72.1152 14.5996C71.623 15.028 70.9622 15.4701 70.1328 15.9258C69.3125 16.3724 68.2825 16.8236 67.043 17.2793C67.0885 17.5436 67.2298 17.7533 67.4668 17.9082C67.7038 18.054 68.0182 18.127 68.4102 18.127C68.8294 18.127 69.276 18.0677 69.75 17.9492C70.2331 17.8216 70.707 17.6621 71.1719 17.4707C71.6458 17.2793 72.1061 17.0742 72.5527 16.8555C72.9993 16.6276 73.4004 16.4134 73.7559 16.2129C74.1204 16.0124 74.4212 15.8392 74.6582 15.6934C74.9043 15.5475 75.0684 15.4564 75.1504 15.4199C75.2324 15.3652 75.3053 15.3333 75.3691 15.3242C75.4421 15.3151 75.5059 15.3106 75.5605 15.3106C75.6699 15.3106 75.7611 15.3379 75.834 15.3926C75.9069 15.4382 75.9661 15.4974 76.0117 15.5703C76.0664 15.6341 76.1029 15.707 76.1211 15.7891C76.1393 15.862 76.1484 15.9258 76.1484 15.9805C76.1484 16.0625 76.1393 16.1628 76.1211 16.2813C76.1029 16.3906 76.0345 16.5182 75.916 16.6641C75.8704 16.7096 75.7155 16.8327 75.4512 17.0332C75.196 17.2337 74.8633 17.4707 74.4531 17.7442C74.043 18.0176 73.5644 18.3093 73.0176 18.6192C72.4798 18.9199 71.9056 19.1979 71.2949 19.4531C70.6934 19.7083 70.0644 19.918 69.4082 20.082C68.7519 20.2552 68.1048 20.3418 67.4668 20.3418C66.9199 20.3418 66.4323 20.237 66.0039 20.0274C65.5846 19.8177 65.2246 19.5352 64.9238 19.1797C64.6322 18.8242 64.4088 18.4141 64.2539 17.9492C64.099 17.4844 64.0215 16.9968 64.0215 16.4863C64.0215 16.0944 64.099 15.666 64.2539 15.2012C64.4089 14.7272 64.6322 14.2533 64.9238 13.7793C65.2155 13.3054 65.571 12.8451 65.9902 12.3984C66.4186 11.9427 66.8971 11.5417 67.4258 11.1953C67.9544 10.849 68.5332 10.571 69.1621 10.3613C69.8001 10.1517 70.4792 10.0469 71.1992 10.0469ZM90.5312 11.3047C89.9661 12.5534 89.3509 13.7429 88.6855 14.8731C88.0293 15.9942 87.3229 16.9785 86.5664 17.8262C85.819 18.6738 85.0352 19.3483 84.2148 19.8496C83.3945 20.3418 82.5469 20.5879 81.6719 20.5879C81.1615 20.5879 80.6465 20.5059 80.1269 20.3418C79.6074 20.1777 79.0742 19.9225 78.5273 19.5762C77.9896 19.2207 77.4427 18.7695 76.8867 18.2227C76.3398 17.6667 75.7838 16.9968 75.2187 16.2129C75.082 16.058 74.9863 15.903 74.9316 15.7481C74.8769 15.5931 74.8496 15.4245 74.8496 15.2422C74.8496 15.1055 74.8906 14.9369 74.9727 14.7363C75.0638 14.5358 75.1914 14.3444 75.3555 14.1621C75.5195 13.9707 75.72 13.8112 75.957 13.6836C76.194 13.5469 76.4629 13.4785 76.7637 13.4785C76.946 13.4785 77.1146 13.5104 77.2695 13.5742C77.4245 13.638 77.5658 13.7474 77.6934 13.9024C78.4225 15.3607 79.1426 16.4271 79.8535 17.1016C80.5736 17.7761 81.2845 18.1133 81.9863 18.1133C82.4967 18.1133 83.0026 17.9492 83.5039 17.6211C84.0143 17.2839 84.5202 16.8008 85.0215 16.1719C85.5228 15.5339 86.0241 14.7591 86.5254 13.8477C87.0358 12.9362 87.5462 11.9017 88.0566 10.7442L91.9805 2.60939C91.0052 2.60028 90.1986 2.59572 89.5605 2.59572C88.9316 2.59572 88.4987 2.59572 88.2617 2.59572C88.0977 2.59572 87.9473 2.55926 87.8105 2.48634C87.6829 2.41343 87.569 2.32228 87.4687 2.21291C87.3776 2.10353 87.3047 1.98048 87.25 1.84377C87.1953 1.70705 87.168 1.57489 87.168 1.44728C87.168 1.19207 87.2682 0.986995 87.4687 0.832047C87.6693 0.667984 87.9883 0.585953 88.4258 0.585953C88.5078 0.585953 88.5898 0.590511 88.6719 0.599625C88.763 0.599625 88.8496 0.599625 88.9316 0.599625C89.6061 0.599625 90.2806 0.581396 90.9551 0.544938C91.6387 0.50848 92.3131 0.472022 92.9785 0.435563C93.653 0.389991 94.3229 0.348975 94.9883 0.312517C95.6628 0.276059 96.3281 0.25783 96.9844 0.25783C97.5039 0.25783 97.9277 0.276059 98.2559 0.312518C98.5931 0.339861 98.8574 0.385434 99.0488 0.449236C99.2402 0.503924 99.3724 0.576841 99.4453 0.667986C99.5182 0.759132 99.5547 0.859393 99.5547 0.968768C99.5547 1.1146 99.5182 1.26499 99.4453 1.41994C99.3815 1.57489 99.2539 1.72072 99.0625 1.85744C98.8711 1.98504 98.5977 2.08986 98.2422 2.17189C97.8958 2.25392 97.4401 2.29494 96.875 2.29494C96.6107 2.29494 96.319 2.30861 96 2.33595C95.6901 2.35418 95.3483 2.38608 94.9746 2.43166L90.5312 11.3047ZM106.445 16.7324C106.044 17.1882 105.575 17.6348 105.037 18.0723C104.508 18.5007 103.962 18.8835 103.396 19.2207C102.831 19.558 102.275 19.8268 101.729 20.0274C101.182 20.237 100.689 20.3418 100.252 20.3418C99.8144 20.3418 99.459 20.2188 99.1855 19.9727C98.9121 19.7266 98.7754 19.3073 98.7754 18.7149C98.7754 18.2956 98.8483 17.808 98.9941 17.252C98.7572 17.6074 98.4609 17.9675 98.1055 18.332C97.75 18.6966 97.3444 19.0293 96.8887 19.3301C96.4329 19.6309 95.9225 19.8724 95.3574 20.0547C94.7923 20.2461 94.1771 20.3418 93.5117 20.3418C93.2109 20.3418 92.9193 20.3099 92.6367 20.2461C92.3633 20.1823 92.1217 20.0729 91.9121 19.918C91.7025 19.763 91.5338 19.558 91.4062 19.3028C91.2786 19.0384 91.2148 18.7103 91.2148 18.3184C91.2148 18.3093 91.2331 18.1725 91.2695 17.9082C91.306 17.6348 91.4199 17.211 91.6113 16.6367C91.8118 16.0534 92.1172 15.3014 92.5273 14.3809C92.9375 13.4603 93.5163 12.3438 94.2637 11.0313C94.4551 10.6849 94.6738 10.4388 94.9199 10.293C95.1751 10.138 95.4486 10.0606 95.7402 10.0606C95.8678 10.0606 96 10.0788 96.1367 10.1153C96.2734 10.1426 96.401 10.1927 96.5195 10.2656C96.638 10.3294 96.7337 10.416 96.8066 10.5254C96.8796 10.6257 96.916 10.7442 96.916 10.8809C96.916 10.972 96.9023 11.0586 96.875 11.1406C96.8294 11.2956 96.7292 11.5007 96.5742 11.7559C96.4284 12.002 96.2552 12.2891 96.0547 12.6172C95.8542 12.9362 95.64 13.2826 95.4121 13.6563C95.1934 14.03 94.9883 14.4173 94.7969 14.8184C94.6055 15.2194 94.4414 15.6296 94.3047 16.0488C94.168 16.459 94.0905 16.86 94.0723 17.252C94.0723 17.416 94.1178 17.5664 94.209 17.7031C94.3001 17.8399 94.4505 17.9082 94.6602 17.9082C95.2526 17.9082 95.8177 17.7442 96.3555 17.416C96.8932 17.0879 97.39 16.6823 97.8457 16.1992C98.3014 15.707 98.7116 15.183 99.0762 14.627C99.4499 14.0619 99.7598 13.5469 100.006 13.082C100.179 12.7722 100.329 12.4395 100.457 12.084C100.594 11.7285 100.74 11.4004 100.895 11.0996C101.049 10.7988 101.227 10.5482 101.428 10.3477C101.628 10.1472 101.879 10.0469 102.18 10.0469C102.508 10.0469 102.768 10.1517 102.959 10.3613C103.15 10.571 103.246 10.8216 103.246 11.1133C103.246 11.2774 103.182 11.5052 103.055 11.7969C102.936 12.0794 102.781 12.4076 102.59 12.7813C102.408 13.1459 102.207 13.5378 101.988 13.957C101.77 14.3763 101.564 14.8047 101.373 15.2422C101.191 15.6706 101.036 16.0944 100.908 16.5137C100.79 16.9238 100.73 17.3067 100.73 17.6621C100.73 17.9903 100.931 18.1543 101.332 18.1543C101.615 18.1543 101.965 18.0723 102.385 17.9082C102.804 17.7442 103.242 17.5163 103.697 17.2246C104.162 16.9238 104.622 16.5729 105.078 16.1719C105.543 15.7709 105.953 15.3379 106.309 14.8731L106.445 16.7324ZM106.76 11.7012C106.942 11.3093 107.17 11.0176 107.443 10.8262C107.717 10.6348 107.986 10.5391 108.25 10.5391C108.469 10.5391 108.665 10.6211 108.838 10.7852C109.011 10.9401 109.098 11.1725 109.098 11.4824C109.098 11.6009 109.084 11.7285 109.057 11.8653C109.029 12.002 108.979 12.1478 108.906 12.3028C109.107 12.0475 109.394 11.7878 109.768 11.5235C110.141 11.25 110.551 11.0085 110.998 10.7988C111.454 10.5801 111.919 10.4024 112.393 10.2656C112.876 10.1289 113.331 10.0606 113.76 10.0606C114.243 10.0606 114.644 10.1791 114.963 10.416C115.291 10.6439 115.455 11.0358 115.455 11.5918C115.455 11.9199 115.405 12.2617 115.305 12.6172C115.204 12.9727 115.072 13.3281 114.908 13.6836C114.753 14.0391 114.576 14.39 114.375 14.7363C114.184 15.0736 113.992 15.3926 113.801 15.6934C113.609 15.9942 113.432 16.2722 113.268 16.5274C113.113 16.7735 112.99 16.9785 112.898 17.1426C112.78 17.2884 112.721 17.4571 112.721 17.6485C112.721 17.7214 112.743 17.7852 112.789 17.8399C112.835 17.8946 112.908 17.9219 113.008 17.9219C113.072 17.9219 113.145 17.9173 113.227 17.9082C113.309 17.89 113.409 17.8399 113.527 17.7578C114.02 17.5755 114.521 17.3477 115.031 17.0742C115.551 16.8008 116.048 16.5137 116.521 16.2129C116.995 15.903 117.428 15.5977 117.82 15.2969C118.221 14.987 118.554 14.709 118.818 14.4629C118.891 14.3991 118.964 14.3535 119.037 14.3262C119.11 14.2988 119.178 14.2852 119.242 14.2852C119.397 14.2852 119.516 14.3444 119.598 14.4629C119.689 14.5814 119.734 14.7318 119.734 14.9141C119.734 15.1966 119.643 15.5111 119.461 15.8574C119.288 16.2038 119.01 16.5274 118.627 16.8281C118.107 17.2018 117.629 17.5436 117.191 17.8535C116.763 18.1634 116.321 18.4551 115.865 18.7285C115.419 18.9929 114.936 19.2435 114.416 19.4805C113.906 19.7084 113.304 19.9225 112.611 20.1231C112.374 20.196 112.156 20.2507 111.955 20.2871C111.764 20.3236 111.586 20.3418 111.422 20.3418C110.939 20.3418 110.583 20.2097 110.355 19.9453C110.137 19.6719 110.027 19.2936 110.027 18.8106C110.027 18.7468 110.027 18.6875 110.027 18.6328C110.036 18.569 110.046 18.5007 110.055 18.4278C110.073 18.1452 110.146 17.8353 110.273 17.4981C110.41 17.1608 110.57 16.8145 110.752 16.459C110.943 16.1035 111.144 15.7526 111.354 15.4063C111.563 15.0508 111.755 14.7181 111.928 14.4082C112.11 14.0892 112.26 13.8067 112.379 13.5606C112.497 13.3145 112.557 13.114 112.557 12.959C112.557 12.8223 112.516 12.7084 112.434 12.6172C112.361 12.5169 112.247 12.4668 112.092 12.4668C111.508 12.4668 110.952 12.64 110.424 12.9863C109.904 13.3327 109.417 13.7611 108.961 14.2715C108.505 14.7728 108.086 15.306 107.703 15.8711C107.32 16.4362 106.983 16.9421 106.691 17.3887C106.509 17.6895 106.34 18.013 106.186 18.3594C106.04 18.6966 105.885 19.0156 105.721 19.3164C105.557 19.6081 105.37 19.8496 105.16 20.041C104.96 20.2416 104.704 20.3418 104.395 20.3418C104.076 20.3418 103.825 20.2416 103.643 20.041C103.46 19.8405 103.369 19.5944 103.369 19.3028C103.369 19.1478 103.433 18.8972 103.561 18.5508C103.688 18.2044 103.852 17.8034 104.053 17.3477C104.253 16.8919 104.477 16.4043 104.723 15.8848C104.978 15.3561 105.229 14.8366 105.475 14.3262C105.73 13.8067 105.971 13.319 106.199 12.8633C106.427 12.4076 106.614 12.0202 106.76 11.7012ZM123.932 10.0606C124.333 10.0606 124.684 10.1107 124.984 10.211C125.285 10.3112 125.54 10.4206 125.75 10.5391C125.987 10.6849 126.197 10.8444 126.379 11.0176C126.507 10.9356 126.643 10.8581 126.789 10.7852C126.917 10.7214 127.058 10.6667 127.213 10.6211C127.368 10.5664 127.523 10.5391 127.678 10.5391C128.079 10.5391 128.389 10.6211 128.607 10.7852C128.826 10.9492 128.936 11.1452 128.936 11.3731C128.936 11.4916 128.904 11.61 128.84 11.7285L125.641 17.7852L125.9 17.5528C126.976 16.9239 127.86 16.4317 128.553 16.0762C129.245 15.7116 129.797 15.4427 130.207 15.2696C130.617 15.0964 130.909 14.9916 131.082 14.9551C131.264 14.9095 131.378 14.8867 131.424 14.8867C131.633 14.8867 131.793 14.9688 131.902 15.1328C132.021 15.2878 132.08 15.4837 132.08 15.7207C132.08 15.985 132.003 16.2539 131.848 16.5274C131.702 16.8008 131.474 16.9968 131.164 17.1153C130.754 17.3249 130.275 17.5528 129.729 17.7989C129.182 18.0358 128.612 18.3002 128.02 18.5918C127.427 18.8835 126.83 19.2116 126.229 19.5762C125.636 19.9317 125.08 20.3281 124.561 20.7656L121.908 25.5645C121.689 26.084 121.489 26.5078 121.307 26.836C121.133 27.1641 120.96 27.4238 120.787 27.6153C120.614 27.8067 120.436 27.9388 120.254 28.0117C120.072 28.0847 119.862 28.1211 119.625 28.1211C119.27 28.1211 118.987 27.9981 118.777 27.752C118.577 27.5059 118.477 27.2097 118.477 26.8633C118.477 26.4987 118.563 26.0749 118.736 25.5918C118.909 25.1087 119.151 24.5847 119.461 24.0196C119.78 23.4636 120.163 22.8757 120.609 22.2559C121.056 21.6452 121.553 21.0209 122.1 20.3828L123.795 18.2227C123.449 18.5417 123.107 18.8151 122.77 19.043C122.432 19.2709 122.109 19.4577 121.799 19.6035C121.489 19.7403 121.197 19.8405 120.924 19.9043C120.66 19.9681 120.427 20 120.227 20C119.862 20 119.525 19.918 119.215 19.7539C118.905 19.5808 118.636 19.3438 118.408 19.043C118.189 18.7422 118.016 18.3867 117.889 17.9766C117.761 17.5664 117.697 17.1198 117.697 16.6367C117.697 15.6341 117.889 14.7272 118.271 13.916C118.663 13.1048 119.16 12.4167 119.762 11.8516C120.372 11.2774 121.042 10.8353 121.771 10.5254C122.51 10.2155 123.23 10.0606 123.932 10.0606ZM123.412 12.4668C122.984 12.4668 122.569 12.5762 122.168 12.7949C121.767 13.0046 121.411 13.2871 121.102 13.6426C120.792 13.989 120.546 14.39 120.363 14.8457C120.181 15.3015 120.09 15.7709 120.09 16.2539C120.09 16.3998 120.099 16.5593 120.117 16.7324C120.145 16.8965 120.195 17.0515 120.268 17.1973C120.35 17.3431 120.464 17.4662 120.609 17.5664C120.764 17.6576 120.974 17.7031 121.238 17.7031C121.43 17.7031 121.653 17.6211 121.908 17.4571C122.173 17.2839 122.441 17.0697 122.715 16.8145C122.997 16.5502 123.271 16.263 123.535 15.9531C123.799 15.6341 124.036 15.3242 124.246 15.0235C124.465 14.7227 124.638 14.4538 124.766 14.2168C124.893 13.9707 124.957 13.7884 124.957 13.6699C124.957 13.4694 124.902 13.2962 124.793 13.1504C124.684 12.9955 124.547 12.8679 124.383 12.7676C124.228 12.6673 124.059 12.5944 123.877 12.5489C123.704 12.4942 123.549 12.4668 123.412 12.4668Z" fill="#544A4A"/>
</svg>
